<?xml version="1.0" encoding="utf-8"?>
<!-- Generator: Adobe Illustrator 16.0.0, SVG Export Plug-In . SVG Version: 6.00 Build 0)  -->
<!DOCTYPE svg PUBLIC "-//W3C//DTD SVG 1.1//EN" "http://www.w3.org/Graphics/SVG/1.1/DTD/svg11.dtd">
<svg version="1.1" id="Capa_1" xmlns="http://www.w3.org/2000/svg" xmlns:xlink="http://www.w3.org/1999/xlink" x="0px" y="0px"
	 width="500px" height="500px" viewBox="0 0 500 500" enable-background="new 0 0 500 500" xml:space="preserve">
<g>
	<g>
		<path fill="#2C2E36" d="M184.437,292.343c0,0-37.525-31.522,40.055-93.583c77.579-62.067,25.858-79.303,25.858-79.303
			s-21.743,27.585-53.441,27.585c-22.412,0-13.794,62.063-41.378-3.449l39.646-53.444c0,0,5.173-25.856,25.867-25.856V22.917
			l25.861,25.865c0,0,110.322-60.341,110.322,143.081c0,0-51.714,50.492-22.41,100.479H184.437z"/>
		<path fill="#5D626C" d="M225.316,60.894v6.454h-6.301c-14.344,0-18.424,19.356-18.584,20.183l-0.279,1.393l-0.834,1.168
			c0,0-31.928,44.083-35.784,49.403c4.87,11.522,7.977,17.28,9.798,20.004c0.518-1.145,1.053-2.395,1.479-3.417
			c3.442-8.167,8.636-20.513,21.105-20.513c26.812,0,46.018-24.352,46.209-24.594l2.744-3.544l4.186,1.423
			c0.704,0.244,17.147,6.034,20.053,22.744c0.289,1.616,0.421,3.263,0.421,4.949c0,17.101-14.527,37.663-43.278,61.221
			c-36.366,29.788-44.353,51.058-44.648,63.656c-0.01,0.252-0.018,0.505-0.018,0.757c0,8.2,3.208,13.437,5.115,15.847
			c4.87,0,114.138,0,131.174,0c-3.388-8.647-4.829-17.202-4.829-25.407c0-22.475,10.387-42.332,18.479-54.396
			c5.197-7.732,8.82-12.239,11.514-14.939c-0.35-70.433-14.582-116.269-41.239-132.549c-25.366-15.476-54.727,0.452-55.025,0.617
			l-4.124,2.282l-3.336-3.39c0,0-7.117-7.288-13.996-14.34C225.316,47.73,225.316,60.894,225.316,60.894z"/>
		<path fill="#A7ADBD" d="M246.002,54.55l-10.749,5.717c0,0-3.994-3.936-6.457-6.364c0,0.132,0,18.139,0,18.139h-16.463
			c-6.654,0-9.727,12.64-9.751,12.765l-0.761,3.453l-2.13,2.991c0,0-14.056,18.939-25.782,34.747
			c3.918-2.445,8.545-4.121,14.292-4.121c23.073,0,40.4-21.166,40.562-21.38l7.178-8.907l10.902,3.553
			c2.397,0.794,23.554,8.453,27.544,30.828c0.414,2.278,0.617,4.584,0.617,6.926c0,20.743-16.098,43.731-48.944,70.009
			c-36.293,29.031-42.463,48.077-42.918,56.844c-0.02,0.387-0.031,0.762-0.031,1.124c0,2.667,0.547,4.666,1.184,6.311
			c12.693,0,86.883,0,118.191,0c-1.104-5.338-1.832-10.745-1.832-16.258c0-19.747,7.07-40.468,21.085-60.858
			c3.97-5.777,7.298-10.053,10.233-13.392c-1.021-82.884-21.111-112.69-38.092-122.889C272.35,40.841,246.265,54.419,246.002,54.55z
			 M175.64,267.184c0.005,0,0.191,0,0.191,0C175.763,267.184,175.701,267.184,175.64,267.184z"/>
		<path fill="#C9D4EC" d="M244.514,80.551c15.7,7.565,32.514,23.074,36.759,46.893c0.663,3.668,0.993,7.458,0.993,11.252
			c0,29.153-18.489,57.524-58.2,89.291c-9.989,7.989-17.025,14.764-21.977,20.317c23.769,0,37.242,0,56.817,0
			c1.703-22.308,10.09-44.608,25.069-66.412c1.948-2.834,3.812-5.391,5.647-7.809c-2.343-75.113-21.846-90.915-25.877-93.336
			C258.11,77.357,249.976,78.809,244.514,80.551z"/>
		<g>
			<path fill="#2C2E36" d="M313.871,357.569c-2.058-0.903-4.158-1.824-6.335-2.76h-91.685c-1.979,0.847-3.903,1.693-5.786,2.524
				c-98.775,43.639-73.297,70.333-30.148,85.536h164.972C387.404,427.699,412.203,401.063,313.871,357.569z"/>
			<path fill="#5D626C" d="M304.764,357.334c-1.884-0.831-3.808-1.67-5.79-2.524h-83.785c-1.813,0.773-3.573,1.547-5.283,2.304
				c-90.264,39.878-66.986,64.267-27.555,78.167h150.755C371.957,421.412,394.61,397.081,304.764,357.334z"/>
			<path fill="#A7ADBD" d="M278.21,361.145c-1.496-0.651-3.024-1.319-4.601-1.995h-66.497c-1.434,0.619-2.826,1.229-4.196,1.824
				c-71.638,31.652-53.159,51.018-21.86,62.052h119.648C331.532,412.007,349.521,392.691,278.21,361.145z"/>
			<path fill="#C9D4EC" d="M243.179,368.547c-0.953-0.415-1.914-0.831-2.918-1.263h-42.108c-0.91,0.392-1.796,0.774-2.657,1.148
				c-45.369,20.049-33.662,32.313-13.844,39.3h75.77C276.947,400.762,288.334,388.53,243.179,368.547z"/>
		</g>
		<g>
			<rect x="135.879" y="441.705" fill="#2C2E36" width="252.216" height="38.168"/>
			<rect x="138.87" y="442.87" fill="#5D626C" width="216.227" height="27.279"/>
			<rect x="140.733" y="445.224" fill="#A7ADBD" width="165.861" height="18.55"/>
			<rect x="147.677" y="449.393" fill="#C9D4EC" width="102.571" height="11.466"/>
		</g>
		<g>
			<path fill="#2C2E36" d="M348.704,340.925c0,7.671-6.205,13.885-13.888,13.885H189.134c-7.663,0-13.872-6.214-13.872-13.885
				v-3.469c0-7.671,6.209-13.876,13.872-13.876h145.683c7.683,0,13.888,6.205,13.888,13.876V340.925z"/>
			<path fill="#5D626C" d="M321.08,337.879c0,6.312-5.122,11.434-11.447,11.434H189.6c-6.317,0-11.433-5.122-11.433-11.434v-2.866
				c0-6.319,5.115-11.433,11.433-11.433h120.033c6.325,0,11.447,5.113,11.447,11.433V337.879z"/>
			<path fill="#A7ADBD" d="M287.352,335.697c0,4.682-3.795,8.469-8.481,8.469h-88.875c-4.677,0-8.465-3.787-8.465-8.469v-2.117
				c0-4.683,3.788-8.47,8.465-8.47h88.875c4.687,0,8.481,3.787,8.481,8.47V335.697z"/>
			<path fill="#C9D4EC" d="M257.911,334.101c0,3.209-2.605,5.814-5.82,5.814h-61.043c-3.221,0-5.82-2.605-5.82-5.814v-1.457
				c0-3.217,2.6-5.822,5.82-5.822h61.043c3.215,0,5.82,2.605,5.82,5.822V334.101z"/>
		</g>
		<g>
			<path fill="#2C2E36" d="M348.704,309.695c0,7.663-6.205,13.885-13.888,13.885H189.134c-7.663,0-13.872-6.222-13.872-13.885
				v-3.469c0-7.671,6.209-13.884,13.872-13.884h145.683c7.683,0,13.888,6.213,13.888,13.884V309.695z"/>
			<path fill="#5D626C" d="M321.08,306.65c0,6.311-5.122,11.433-11.447,11.433H189.6c-6.317,0-11.433-5.122-11.433-11.433v-2.867
				c0-6.318,5.115-11.44,11.433-11.44h120.033c6.325,0,11.447,5.122,11.447,11.44V306.65z"/>
			<path fill="#A7ADBD" d="M287.352,304.468c0,4.674-3.795,8.469-8.481,8.469h-88.875c-4.677,0-8.465-3.795-8.465-8.469v-2.126
				c0-4.674,3.788-8.46,8.465-8.46h88.875c4.687,0,8.481,3.786,8.481,8.46V304.468z"/>
			<path fill="#C9D4EC" d="M257.911,302.863c0,3.217-2.605,5.822-5.82,5.822h-61.043c-3.221,0-5.82-2.605-5.82-5.822v-1.457
				c0-3.209,2.6-5.814,5.82-5.814h61.043c3.215,0,5.82,2.605,5.82,5.814V302.863z"/>
		</g>
	</g>
	<path fill="#2C2E36" stroke="#2C2E36" stroke-width="0.5" stroke-miterlimit="10" d="M219.504,75.732
		c-0.484,4.791-10.568,1.322-8.548,7.893C215.198,84.052,219.019,80.523,219.504,75.732z"/>
</g>
</svg>
