<?xml version="1.0" encoding="utf-8"?>
<!-- Generator: Adobe Illustrator 16.0.0, SVG Export Plug-In . SVG Version: 6.00 Build 0)  -->
<!DOCTYPE svg PUBLIC "-//W3C//DTD SVG 1.1//EN" "http://www.w3.org/Graphics/SVG/1.1/DTD/svg11.dtd">
<svg version="1.1" id="Capa_1" xmlns="http://www.w3.org/2000/svg" xmlns:xlink="http://www.w3.org/1999/xlink" x="0px" y="0px"
	 width="500px" height="500px" viewBox="1040 0 500 500" enable-background="new 1040 0 500 500" xml:space="preserve">
<g>
	<path d="M1162.877,350.383c-0.445-0.17-1.12-0.65-2.024-1.443c-1.735-1.664-2.901-2.541-3.495-2.629
		c-0.264-0.16-0.833-0.526-1.707-1.1c-0.875-0.574-1.957-1.289-3.242-2.146c-1.816-1.328-3.479-2.443-4.985-3.348
		c-1.509-0.904-2.606-1.461-3.296-1.668c-0.049-0.135-0.18-0.279-0.389-0.432c-0.209-0.154-0.316-0.307-0.32-0.458
		c-0.08-0.074-0.289-0.228-0.629-0.46c-0.342-0.232-0.628-0.383-0.857-0.453c-0.41-0.002-0.838-0.088-1.283-0.258
		c-0.445-0.169-0.72-0.464-0.823-0.886c-0.765-0.691-2.624-1.927-5.577-3.706c-3.355,1.588-6.074,3.582-8.158,5.983
		c-2.406,2.364-4.035,4.472-4.892,6.319c-0.69,1.326-1.175,2.514-1.454,3.563c-0.28,1.048-0.338,1.797-0.172,2.248
		c0.014,0.455-0.096,1.135-0.326,2.037c-0.232,0.902-0.496,1.435-0.796,1.596c-0.073,0.078-0.245,0.167-0.516,0.266
		c-0.677,0.248-1.213,0.316-1.611,0.208c-0.381-0.065-0.675-0.136-0.884-0.213c-0.207-0.077-0.369-0.274-0.484-0.589
		c-0.182-0.496-0.225-1.172-0.129-2.023c-0.309-0.705-0.087-2.192,0.664-4.462c0.752-2.27,1.541-4.093,2.366-5.47
		c1.312-1.861,2.526-3.495,3.646-4.902c1.12-1.408,2.453-2.652,4.001-3.73c0.745-0.479,1.837-1.262,3.278-2.353
		c0.74-0.63,1.281-1.034,1.627-1.21l1.284-0.472l-2.325-0.067c-0.152,0.004-0.999-0.005-2.541-0.026
		c-1.542-0.022-4.199,0.122-7.971,0.431l-3.912,0.209c-3.625,0.152-5.927,0.218-6.907,0.193c-0.979-0.023-1.536-0.216-1.669-0.576
		c-0.066-0.181-0.051-0.454,0.044-0.821c0.095-0.368,0.163-0.636,0.204-0.804c0.094-0.443,0.205-0.766,0.336-0.967
		s0.33-0.352,0.602-0.45c0.315-0.116,0.92-0.21,1.813-0.282c0.568-0.26,1.149-0.421,1.739-0.484c0.59-0.063,0.93-0.111,1.021-0.145
		c0.115,0.314,0.533,0.342,1.254,0.076c0.361-0.131,1.225-0.219,2.59-0.259l2.318-0.16l2.258,0.092c1.443,0.032,2.21,0.033,2.301,0
		c0.585-0.215,1.436-0.194,2.553,0.061c0.607-0.019,1.25-0.075,1.932-0.172c0.68-0.096,1.223-0.219,1.629-0.367
		c0.258,0.007,0.867,0.065,1.827,0.173c0.96,0.108,1.878,0.104,2.756-0.014c0.241-0.038,0.519-0.05,0.83-0.036
		c0.312,0.013,0.695,0.014,1.15,0l6.901-0.001l2.671,0.171c0.258,0.007,1.067,0.056,2.431,0.144
		c1.361,0.088,2.075,0.223,2.141,0.403l0.744-0.272c0.18-0.066,0.856-0.033,2.03,0.099l1.92,0.216c0.673,0.162,1.339,0.238,2,0.226
		c0.659-0.012,1.088-0.028,1.285-0.05c0.106,0.012,0.297,0.045,0.572,0.097c0.274,0.053,0.535,0.136,0.782,0.25
		c0.542,0.363,0.888,0.748,1.037,1.153c0.23,0.631-0.021,1.338-0.758,2.119c-0.516,0.546-1.021,0.91-1.516,1.092
		c-0.451,0.166-1.066,0.162-1.846-0.013c-3.852-0.325-7.798-0.629-11.838-0.911c-4.041-0.281-6.33-0.324-6.871-0.125l2.533,1.678
		c1.6,0.742,3.842,2.043,6.722,3.9l9.81,5.834c1.093,1.03,2.63,2.154,4.61,3.371c0.435,0.351,0.815,0.621,1.14,0.809
		s0.564,0.355,0.722,0.502c0.324,0.188,0.917,0.584,1.778,1.189c0.859,0.604,1.309,1.027,1.348,1.27
		c0.406,0.412,0.38,1.035-0.082,1.869c-0.461,0.834-1.001,1.313-1.619,1.438C1163.754,350.508,1163.323,350.551,1162.877,350.383z"
		/>
	<path d="M1130.203,361.227c0.585-0.33,1.145-0.51,1.682-0.537c0.209-0.118,0.482-0.219,0.823-0.3
		c0.339-0.082,0.551-0.146,0.635-0.193c0.228-0.185,1.011-0.406,2.353-0.668c2.096-0.192,5.608-0.854,10.538-1.987
		c0.208-0.117,0.433-0.135,0.675-0.05c0.24,0.084,0.476,0.281,0.707,0.593c0.271,0.287,0.443,0.493,0.515,0.618
		c0.142,0.251,0.172,0.523,0.091,0.817c-0.082,0.295-0.279,0.75-0.592,1.369c-0.109,0.392-0.414,0.729-0.916,1.014
		c-0.794,0.448-1.908,0.719-3.344,0.814c-1.52,0.142-2.765,0.377-3.736,0.706c-1.412,0.136-2.682,0.329-3.807,0.58
		c-0.299,0.058-0.871,0.216-1.717,0.475c-0.848,0.257-1.584,0.37-2.208,0.338c-1.312,0.411-2.257,0.642-2.834,0.692
		c-0.579,0.051-0.938-0.049-1.079-0.3c-0.166-0.293-0.098-0.854,0.204-1.687C1128.446,362.605,1129.116,361.841,1130.203,361.227z
		 M1158.156,353.614c0.592-0.611,0.947-0.812,1.065-0.603c0.229,0.311,0.815,0.49,1.753,0.539c0.938,0.05,1.623-0.077,2.06-0.379
		c0.167-0.094,0.358-0.119,0.577-0.077c0.217,0.043,0.393,0.136,0.529,0.279c0.397,0.216,0.668,0.45,0.81,0.7
		c0.401,0.711,0.266,1.641-0.406,2.793c-0.401,0.559-0.812,0.955-1.229,1.191c-0.375,0.213-0.821,0.326-1.336,0.342
		c-0.516,0.016-1.24-0.071-2.174-0.26c-1.363-0.168-2.221-0.564-2.575-1.191c-0.236-0.418-0.287-0.994-0.152-1.732
		C1157.203,354.759,1157.563,354.225,1158.156,353.614z"/>
	<path d="M1145.1,391.732c1.086-1.666,2.453-3.121,4.098-4.368c0.459-0.348,0.799-0.575,1.02-0.682l1.293-0.798l-3.476-0.891
		c-1.999-0.414-3.723-1.02-5.171-1.818c-1.449-0.799-2.551-1.697-3.304-2.691c-0.378-0.738-0.571-1.57-0.581-2.496
		s0.19-1.756,0.601-2.486c0.189-0.386,0.591-0.81,1.204-1.273c1.414-1.072,3.378-1.959,5.891-2.656
		c2.512-0.698,4.834-0.952,6.967-0.761c3.732-0.239,6.367,0.655,7.903,2.684c0.724,0.956,1.162,2.13,1.313,3.522
		c0.341,1.246,0.57,1.945,0.687,2.099c0.174,0.229,0.399,0.329,0.679,0.299c0.277-0.03,0.709-0.176,1.293-0.438
		c2.078-0.912,3.855-1.626,5.332-2.143c3.163-1.071,5.742-1.88,7.736-2.427c1.993-0.548,4.242-1.077,6.746-1.588
		c1.093-0.227,1.872-0.289,2.339-0.19c0.466,0.098,0.81,0.334,1.033,0.707c0.638,0.842,0.556,1.928-0.243,3.256
		c-0.182,0.318-0.406,0.578-0.674,0.781s-0.718,0.363-1.352,0.48c-2.475,0.31-6.215,1.216-11.219,2.719
		c-5.004,1.502-9.245,2.938-12.723,4.309c-1.523,0.612-3.566,1.692-6.127,3.24c-2.562,1.549-4.625,2.918-6.193,4.105
		c-0.689,0.521-1.158,0.937-1.406,1.246c-0.506,0.684-1.007,1.215-1.504,1.59c-0.382,0.29-0.713,0.39-0.992,0.301
		c-0.279-0.091-0.597-0.332-0.953-0.723C1144.362,393.857,1144.291,392.889,1145.1,391.732z M1148.495,382.025
		c0.327,0.113,1.147,0.363,2.466,0.751c1.316,0.388,2.514,0.536,3.588,0.444s2.144-0.391,3.207-0.895
		c0.717-0.484,1.231-0.978,1.541-1.483c0.309-0.505,0.485-1.167,0.531-1.982c-0.023-0.585-0.251-1.165-0.686-1.739
		c-0.783-1.033-1.93-1.67-3.437-1.913c-1.701-0.337-3.583-0.356-5.646-0.06c-2.063,0.299-4.21,0.961-6.441,1.99
		c-0.814,0.436-0.889,1.093-0.221,1.973c0.348,0.46,0.66,0.795,0.94,1.004C1145.197,380.851,1146.582,381.487,1148.495,382.025z"/>
	<path d="M1158.696,404.608c-0.152-1.031-0.168-1.819-0.049-2.367c0.065-0.069,0.18-0.192,0.345-0.367
		c0.164-0.175,0.323-0.239,0.478-0.193s0.371,0.2,0.652,0.464c0.594,0.558,1.473,1.516,2.637,2.871
		c0.77,0.723,1.734,1.447,2.896,2.176c1.159,0.727,1.907,1.018,2.243,0.871c0.105,0.099,0.174,0.131,0.207,0.096
		c0.064-0.07,0.089-0.377,0.072-0.92c-0.07-0.066-0.171-0.274-0.3-0.627c-0.13-0.353-0.229-0.562-0.3-0.627
		c0.131-0.14,0.146-0.471,0.045-0.995c-0.102-0.522-0.264-1.052-0.482-1.589c-0.227-1.793-0.361-3.088-0.402-3.885
		c-0.043-0.795,0.07-1.232,0.34-1.309l0.247-0.263c-0.245-0.23-0.196-0.827,0.147-1.788c0.343-0.961,0.793-1.738,1.353-2.334
		c0.591-0.631,1.683-1.25,3.278-1.861c1.593-0.609,3.067-0.937,4.426-0.979c1.833,0.011,4.005,0.239,6.516,0.687
		c2.51,0.447,4.351,0.958,5.524,1.532c0.823,0.313,1.534,0.749,2.13,1.308c0.559,0.525,0.916,1.092,1.072,1.699
		c0.19,0.707,0.26,1.527,0.205,2.463c-0.057,0.936-0.211,1.68-0.465,2.23c-0.724,0.771-1.5,1.44-2.331,2.01s-1.404,0.706-1.72,0.41
		c-0.035-0.033-0.104-0.064-0.206-0.096c-0.104-0.03-0.221,0.025-0.352,0.164c-0.132,0.141-0.374,0.258-0.728,0.354
		s-0.752,0.134-1.193,0.114c-1.296-0.163-2.188-0.475-2.678-0.935c-0.386-0.362-0.449-0.784-0.193-1.268
		c-0.005-0.136,0.023-0.306,0.086-0.513c0.061-0.205,0.04-0.357-0.064-0.455c-0.036-0.033-0.041-0.152-0.012-0.357
		c0.027-0.204,0.14-0.411,0.337-0.621c0.099-0.105,0.248-0.178,0.452-0.219c0.201-0.04,0.336-0.061,0.404-0.063
		c0.211,0.197,0.945,0.113,2.209-0.248c1.261-0.362,2.023-0.684,2.287-0.964c0.197-0.21,0.285-0.356,0.266-0.441
		c-0.02-0.083-0.17-0.258-0.449-0.521c-3.88-1.338-6.447-2.005-7.703-1.998c-0.303,0.111-0.513,0.178-0.631,0.197
		c-0.119,0.021-0.248-0.035-0.387-0.166c0.295-0.314-1.75,0.004-6.134,0.957c-0.137,0.004-0.413,0.141-0.827,0.408
		c-0.417,0.268-0.74,0.525-0.969,0.77c-0.334,0.214-0.517,0.34-0.549,0.373c-0.132,0.141-0.203,0.338-0.211,0.593
		c-0.01,0.255,0.018,0.56,0.08,0.915c0.063,0.354,0.115,0.718,0.162,1.09c0.537,3.072,0.845,5.287,0.922,6.644
		c0.076,1.355-0.029,2.327-0.316,2.913c-0.203,1.127-0.566,1.971-1.092,2.53c-0.395,0.42-0.896,0.64-1.507,0.659
		s-1.362-0.127-2.255-0.438c-0.551-0.187-1.336-0.646-2.361-1.378c-1.025-0.732-1.975-1.508-2.85-2.33
		c-0.49-0.46-0.982-0.988-1.477-1.583C1159.121,406.574,1158.846,405.639,1158.696,404.608z"/>
	<path d="M1199.77,436.022c-0.738-1.954-0.943-3.737-0.618-5.347c0.475-1.373,1.11-2.853,1.907-4.439
		c0.518-1.029,0.873-1.576,1.066-1.641c0.171-0.021,0.365-0.246,0.58-0.676c0.086-0.279,0.592-0.911,1.517-1.896
		c0.688-0.622,1.108-1.243,1.259-1.865c0.086-0.064,0.236-0.176,0.451-0.338c0.215-0.16,0.462-0.305,0.742-0.434
		c0.321-0.105,0.553-0.272,0.693-0.498c0.139-0.225,0.209-0.391,0.21-0.498l0.032-0.064c0.086-0.171,0.252-0.369,0.5-0.595
		c0.246-0.226,0.479-0.391,0.693-0.498c0.193-0.063,0.396-0.176,0.612-0.337c0.214-0.16,0.364-0.272,0.451-0.338
		c0.192-0.277,1.005-1.066,2.435-2.361c1.43-1.297,2.338-2.063,2.726-2.298l0.064-0.129c0.386-0.343,0.849-0.675,1.386-0.995
		c0.388-0.559,1.107-1.244,2.162-2.058c2.084-1.692,4.732-3.517,7.946-5.476c3.212-1.959,5.581-3.173,7.106-3.643
		c0.664-0.257,1.186-0.412,1.563-0.465c0.375-0.053,0.691-0.015,0.949,0.115c0.387,0.193,0.729,0.741,1.027,1.644
		c0.256,0.772,0.169,1.589-0.262,2.446c-0.237,0.473-0.441,0.664-0.613,0.578c-0.751,0.106-2.566,0.941-5.445,2.503
		c-2.879,1.563-5.308,3.028-7.285,4.398c-1.161,0.921-2.15,1.688-2.966,2.298c-0.817,0.609-1.354,1.012-1.612,1.204l-0.548,0.45
		c-2.128,1.67-4.278,3.545-6.45,5.623c-0.344,0.149-0.617,0.348-0.822,0.594c-0.204,0.248-0.328,0.414-0.371,0.499
		c-0.064-0.085-0.198-0.005-0.402,0.241c-0.205,0.247-0.404,0.455-0.597,0.627c-0.431,0.105-0.893,0.653-1.388,1.639
		c-1.055,0.922-2.173,2.187-3.355,3.795c-1.184,1.607-1.948,2.861-2.293,3.763c-0.539,1.501,0.07,3.231,1.826,5.188
		c0.793,0.882,1.425,1.44,1.897,1.678c0.278,0.193,0.75,0.404,1.415,0.63c0.665,0.227,1.438,0.48,2.318,0.762l-0.064-0.033
		c0.234,0.065,1.543,0.4,3.926,1.006c1.094,0.388,2.049,0.625,2.865,0.713c1.48,0.26,2.414,0.486,2.8,0.681
		c0.257,0.13,0.406,0.259,0.45,0.388c0.213,0.43,0.224,0.838,0.029,1.223l-0.419,0.516c-0.302,0.279-1.247,0.449-2.835,0.51
		s-3.047-0.027-4.378-0.266c-1.095-0.066-2.286-0.289-3.573-0.666c-1.287-0.379-2.488-0.848-3.604-1.406
		c-1.158-0.582-1.963-1.121-2.412-1.615C1201.606,439.588,1200.508,437.977,1199.77,436.022z"/>
	<path d="M1233.666,448.66c-0.27-0.278-0.631-0.758-1.08-1.44c-1.051-2.056-1.381-3.753-0.99-5.089
		c0.094-0.322,0.184-0.547,0.271-0.672c0.231-0.281,0.384-0.588,0.455-0.916c0.07-0.33,0.12-0.54,0.147-0.633
		c-0.131-0.237-0.186-0.392-0.166-0.461c0.02-0.068,0.086-0.125,0.199-0.167c0.111-0.042,0.204-0.103,0.277-0.181
		c0.277,0.08,0.442-0.146,0.498-0.68c0.016-0.396,0.438-1.16,1.27-2.293c0.83-1.133,1.746-2.127,2.746-2.986
		c0.748-0.682,1.8-1.5,3.154-2.455c1.354-0.955,2.516-1.641,3.488-2.057c1.388-0.646,2.586-1.07,3.597-1.275
		c1.009-0.205,2.077-0.269,3.206-0.189c0.988,0.038,1.644,0.104,1.967,0.198c0.321,0.094,0.586,0.259,0.793,0.494
		c0.205,0.235,0.457,0.62,0.75,1.156c1.083,0.916,1.742,1.871,1.977,2.864c0.235,0.994,0.091,2.389-0.434,4.186
		c-0.874,2.996-3.043,5.889-6.507,8.678c-1.505,1.211-2.835,2.086-3.991,2.623c-1.157,0.537-2.629,1.045-4.419,1.523
		c-1.169,0.408-2.202,0.645-3.095,0.709c-0.895,0.064-1.855-0.027-2.881-0.278C1234.346,449.158,1233.934,448.938,1233.666,448.66z
		 M1247.362,441.181c0.989-0.911,2.033-2.132,3.131-3.661c0.458-0.717,0.85-1.628,1.172-2.733c0.403-1.383,0.447-2.22,0.133-2.512
		c-0.395-0.364-0.821-0.614-1.281-0.749c-1.014-0.296-2.209-0.144-3.583,0.455c-1.673,0.762-3.284,1.83-4.835,3.201
		c-1.551,1.373-3.241,3.143-5.073,5.309c-0.743,0.832-1.249,1.711-1.519,2.631c-0.201,0.691-0.189,1.295,0.035,1.811
		s0.636,0.861,1.234,1.035c1.521,0.444,3.82-0.235,6.896-2.037C1245.141,443.008,1246.369,442.092,1247.362,441.181z"/>
	<path d="M1264.678,447.275c-0.439-2.906-0.713-5.697-0.819-8.371c-0.067-1.023-0.281-2.428-0.642-4.213
		c-0.098-0.785-0.127-1.322-0.092-1.607c0.105-0.857,0.541-1.457,1.309-1.798c0.207-0.12,0.496-0.192,0.861-0.22
		c0.366-0.027,0.664-0.002,0.898,0.074c1,0.51,1.596,3.533,1.785,9.069c-0.027,1.399,0.034,2.665,0.186,3.796
		c0.15,1.131,0.237,1.795,0.262,1.99c0.107,0.304,0.238,0.622,0.391,0.955c0.151,0.334,0.348,0.514,0.586,0.543
		c0.143,0.018,0.32-0.057,0.535-0.224c1.016-0.793,2.134-1.815,3.353-3.069c1.337-1.432,2.252-2.382,2.745-2.854
		c0.623-0.746,1.432-1.613,2.424-2.604c0.167-0.172,0.555-0.584,1.168-1.234c0.611-0.65,1.188-1.196,1.725-1.638
		c0.538-0.442,0.98-0.688,1.325-0.743c0.149-0.029,0.366-0.028,0.652,0.008c0.81,0.1,1.173,0.482,1.091,1.149
		c-0.076,0.62-0.619,1.495-1.629,2.628c-0.332,0.348-0.693,0.822-1.082,1.427c-0.39,0.604-0.637,0.95-0.744,1.033
		c-0.654,0.983-1.801,2.343-3.439,4.074c-1.641,1.733-2.729,2.808-3.263,3.226c-0.108,0.084-0.542,0.368-1.302,0.855
		c-0.762,0.486-1.479,1.1-2.149,1.839c-1.701,1.241-2.884,1.821-3.551,1.739c-0.429-0.053-0.831-0.32-1.208-0.802
		C1265.576,451.86,1265.117,450.184,1264.678,447.275z"/>
	<path d="M1296.152,456.799c-1.2,0.033-2.347-0.225-3.442-0.771s-2.017-1.313-2.764-2.302c-0.645-0.75-1.124-1.601-1.438-2.553
		c-0.313-0.951-0.489-2.123-0.528-3.516c-0.013-0.479,0.008-1.44,0.065-2.883c0.096-1.778,0.632-3.643,1.612-5.59
		c0.979-1.947,2.215-3.697,3.71-5.251c1.493-1.554,2.977-2.639,4.448-3.255c0.754-0.5,1.444-0.76,2.068-0.777
		c0.335-0.009,0.672,0.007,1.009,0.045c0.337,0.039,0.698,0.078,1.084,0.115c1.059,0.114,1.868,0.297,2.428,0.545
		c0.559,0.25,1.037,0.633,1.436,1.149c1.232,1.167,1.87,2.542,1.914,4.126c-0.161,1.156-0.868,2.497-2.123,4.02
		s-2.782,2.766-4.58,3.727c-0.855,0.311-1.836,0.481-2.939,0.512c-1.487,0.041-2.696-0.238-3.624-0.838
		c-0.436-0.132-0.773-0.194-1.014-0.188c-0.432,0.012-0.748,0.309-0.947,0.89c-0.201,0.582-0.377,1.644-0.525,3.184
		c-0.039,0.338-0.051,0.818-0.033,1.441c0.066,2.447,0.919,3.769,2.557,3.964c1.11,0.211,1.905,0.309,2.386,0.295
		c0.575-0.016,1.218-0.225,1.928-0.629l1.346-0.829c0.284-0.151,0.542-0.351,0.775-0.597s0.443-0.469,0.631-0.666
		c0.093-0.098,0.232-0.258,0.419-0.479c0.185-0.222,0.361-0.37,0.527-0.446c0.166-0.077,0.321-0.117,0.465-0.121
		c0.191-0.006,0.41,0.097,0.657,0.307c0.245,0.209,0.441,0.359,0.588,0.451c0.433-0.012,0.536,0.286,0.313,0.893
		s-0.72,1.316-1.49,2.129c-0.77,0.813-1.65,1.547-2.641,2.197C1299.256,456.186,1297.83,456.753,1296.152,456.799z
		 M1302.372,437.975c0.815-0.887,1.216-1.619,1.2-2.194s-0.245-1.049-0.688-1.422c-0.441-0.372-1.048-0.548-1.814-0.526
		c-0.576,0.016-1.007,0.076-1.292,0.18c-0.667,0.211-1.444,0.748-2.333,1.611c-0.889,0.865-1.657,1.738-2.305,2.621
		c-0.648,0.881-0.898,1.393-0.75,1.532c0.25,0.425,1.192,0.616,2.824,0.571c1.104-0.03,2.011-0.199,2.723-0.506
		C1300.744,439.484,1301.556,438.861,1302.372,437.975z"/>
	<path d="M1342.705,451.857c-1.102-0.338-2.195-1.133-3.277-2.389c-1.419-1.8-2.597-4.087-3.535-6.861
		c-0.906-2.682-1.52-5.021-1.839-7.016c-0.32-1.994-0.424-4.1-0.311-6.317l0.13-1.64c0.097-2.109,0.205-3.515,0.323-4.214
		c0.174-2.034,0.762-4.792,1.765-8.272c0.836-3.221,1.551-5.604,2.145-7.146c0.593-1.543,1.232-2.836,1.919-3.879
		c0.686-1.042,1.988-2.85,3.905-5.424c0.784-1.126,1.858-1.92,3.223-2.381c1.137-0.385,2.29-0.457,3.46-0.22
		c1.17,0.239,2.182,0.796,3.035,1.672c0.792,0.695,1.435,1.771,1.927,3.226c0.691,2.046,0.959,4.338,0.803,6.873
		c-0.157,2.535-0.725,4.679-1.704,6.428c-0.316,0.563-0.679,0.913-1.088,1.051c-0.501,0.17-1.283,0.029-2.348-0.422
		c-0.67-0.635-1.052-1.013-1.143-1.134c-0.092-0.121-0.032-0.242,0.181-0.365c0.24-0.638,0.516-1.809,0.827-3.51
		s0.466-3.007,0.462-3.918c-0.001-0.304-0.064-0.788-0.188-1.456c-0.174-1.715-0.353-2.846-0.537-3.391
		c-0.185-0.546-0.49-0.924-0.916-1.135c-0.183-0.09-0.388-0.098-0.614-0.021c-0.365,0.124-0.924,0.566-1.68,1.327
		c-0.938,0.824-1.979,2.316-3.123,4.477c-1.145,2.16-2.084,4.403-2.818,6.729c-1.17,3.436-2.012,6.229-2.526,8.378
		c-0.516,2.149-0.761,4.235-0.737,6.253l-0.15,2.027c0.106,0.166,0.191,0.645,0.257,1.434c0.063,0.789,0.059,1.449-0.015,1.98
		c0.254,2.854,0.819,5.574,1.696,8.166c0.66,1.957,1.415,3.627,2.263,5.012c0.849,1.385,1.683,2.244,2.504,2.574
		c0.472,0.195,1.071,0.17,1.799-0.076c0.909-0.307,1.958-0.914,3.146-1.823c1.188-0.907,2.613-2.124,4.277-3.649
		c0.907-0.763,1.734-1.574,2.482-2.436c0.747-0.86,1.272-1.595,1.573-2.203c0.891-1.264,1.699-2.019,2.427-2.265
		c0.438-0.351,0.749-0.558,0.932-0.618c0.09-0.031,0.166,0.008,0.228,0.112c0.062,0.106,0.123,0.251,0.185,0.433
		c0.215,0.637,0.108,1.445-0.32,2.426s-1.097,2.004-2.002,3.07c-0.603,1.219-1.456,2.291-2.56,3.221
		c-1.103,1.538-2.481,3.043-4.137,4.515c-1.656,1.472-3.28,2.477-4.871,3.015c-0.364,0.123-0.834,0.23-1.41,0.324
		C1345.147,452.374,1343.807,452.193,1342.705,451.857z"/>
	<path d="M1375.03,431.562c-0.615,0.374-1.174,0.518-1.677,0.429c-0.503-0.086-0.855-0.182-1.058-0.284
		c-0.202-0.101-0.378-0.276-0.527-0.522c-0.1-0.163-0.417-1.01-0.952-2.538l-0.68-2.367c-0.611-1.931-1.09-3.55-1.434-4.857
		c-0.459-1.124-0.802-2.405-1.027-3.841c-0.226-1.434-0.373-2.301-0.439-2.597c-0.395-1.389-0.881-3.621-1.457-6.697l-1.181-6.106
		c-0.932-4.769-1.516-7.672-1.751-8.708l-0.66-3.306c-0.398-0.656-0.271-1.184,0.387-1.582c0.574-0.35,1.249-0.324,2.025,0.075
		s1.413,1.009,1.911,1.829c0.374,0.615,0.612,1.285,0.715,2.01c0.173,1.58,0.488,3.508,0.945,5.785
		c0.457,2.279,0.757,3.768,0.9,4.465c0.997,4.787,1.587,8.023,1.769,9.709c0.101,0.164,0.214,0.489,0.339,0.974
		c0.127,0.485,0.207,0.942,0.242,1.37l0.146,1.764c0.074,0.123,0.372,1.123,0.893,2.996c0.497,2.113,0.934,3.617,1.309,4.513
		c-0.02-0.493,0.069-1.319,0.265-2.478c0.195-1.156,0.43-2.156,0.706-2.998c1.085-3.298,1.782-5.295,2.092-5.988
		c0.318-0.585,0.565-1.102,0.745-1.547c0.178-0.445,0.305-0.746,0.378-0.903c-0.125-0.205,0.038-0.444,0.489-0.719
		c0.164-0.1,0.244-0.176,0.24-0.229c-0.005-0.053-0.057-0.162-0.156-0.326c-0.174-0.287,0.141-0.83,0.948-1.629
		c0.807-0.799,1.579-1.423,2.317-1.871c0.492-0.299,0.944-0.434,1.356-0.402c0.411,0.031,1.055,0.258,1.93,0.681
		c1.295,0.562,2.292,1.417,2.989,2.564c0.399,0.657,0.688,1.408,0.864,2.255c0.2,0.329,0.453,0.862,0.762,1.602
		s0.613,1.354,0.912,1.848l0.826,2.193l0.985-0.599c0.286-0.174,0.588-0.301,0.905-0.382c0.316-0.078,0.528-0.123,0.635-0.133
		c0.644,0.229,1.108,0.254,1.396,0.079c0.369-0.224,0.641-0.192,0.815,0.095c0.1,0.164,0.142,0.419,0.127,0.765
		s-0.115,0.688-0.303,1.026c-0.669,1.305-1.371,2.181-2.109,2.629c-0.698,0.424-1.615,0.532-2.752,0.324
		c-1.451-0.354-2.563-1.168-3.335-2.439c-0.398-0.656-0.749-1.511-1.052-2.563l-1.011-2.082c-0.517-1.034-0.849-1.674-0.998-1.92
		c-0.573-0.943-1.086-1.279-1.537-1.005c-0.575,0.349-1.366,1.519-2.376,3.507c-1.011,1.99-1.922,4.257-2.736,6.801
		c-0.813,2.545-1.272,4.887-1.376,7.027c-0.142,1.153-0.31,2.056-0.504,2.707c-0.193,0.651-0.463,1.109-0.808,1.375L1375.03,431.562
		z"/>
	<path d="M1412.725,407.738c-0.896,0.799-1.939,1.342-3.129,1.629c-1.189,0.288-2.389,0.295-3.597,0.021
		c-0.977-0.158-1.892-0.5-2.745-1.026c-0.854-0.525-1.743-1.308-2.669-2.348c-0.318-0.358-0.922-1.106-1.808-2.247
		c-1.073-1.422-1.863-3.192-2.369-5.313c-0.506-2.12-0.688-4.255-0.546-6.406c0.142-2.15,0.576-3.936,1.305-5.355
		c0.255-0.868,0.614-1.511,1.081-1.927c0.25-0.223,0.518-0.428,0.801-0.616c0.282-0.187,0.583-0.39,0.902-0.61
		c0.884-0.594,1.62-0.977,2.208-1.146s1.2-0.186,1.839-0.047c1.693,0.1,3.067,0.738,4.121,1.922
		c0.622,0.988,0.945,2.469,0.966,4.441c0.022,1.975-0.345,3.908-1.101,5.801c-0.454,0.79-1.094,1.553-1.918,2.286
		c-1.111,0.989-2.215,1.556-3.312,1.694c-0.418,0.18-0.717,0.35-0.896,0.51c-0.322,0.287-0.373,0.718-0.151,1.291
		c0.222,0.574,0.771,1.5,1.65,2.773c0.188,0.283,0.489,0.658,0.903,1.123c1.628,1.828,3.131,2.291,4.51,1.384
		c0.984-0.554,1.655-0.991,2.014-1.312c0.431-0.383,0.787-0.957,1.069-1.723l0.495-1.501c0.119-0.299,0.188-0.617,0.208-0.957
		c0.02-0.339,0.037-0.644,0.053-0.915c0.008-0.135,0.012-0.348,0.012-0.637c-0.001-0.288,0.038-0.516,0.116-0.682
		c0.077-0.165,0.17-0.296,0.277-0.392c0.144-0.128,0.376-0.19,0.699-0.188s0.57-0.01,0.742-0.034
		c0.322-0.287,0.594-0.126,0.813,0.481s0.297,1.471,0.232,2.588c-0.065,1.119-0.266,2.246-0.604,3.383
		C1414.703,405.27,1413.979,406.621,1412.725,407.738z M1405.352,389.334c0.053-1.203-0.112-2.021-0.495-2.451
		c-0.383-0.43-0.863-0.645-1.441-0.645c-0.578,0.001-1.154,0.257-1.728,0.768c-0.43,0.383-0.721,0.706-0.872,0.969
		c-0.374,0.592-0.623,1.504-0.745,2.736c-0.123,1.234-0.147,2.396-0.075,3.488c0.072,1.094,0.211,1.645,0.414,1.656
		c0.467,0.164,1.309-0.297,2.528-1.383c0.824-0.734,1.41-1.448,1.756-2.143C1405.08,391.537,1405.299,390.539,1405.352,389.334z"/>
	<path d="M1427.283,392.199c-1.02,0.217-1.806,0.282-2.359,0.199c-0.073-0.062-0.202-0.168-0.388-0.322
		c-0.186-0.152-0.26-0.307-0.224-0.464s0.176-0.383,0.421-0.68c0.52-0.628,1.42-1.565,2.698-2.813
		c0.673-0.814,1.336-1.822,1.988-3.027c0.652-1.203,0.896-1.969,0.728-2.295c0.092-0.11,0.119-0.182,0.082-0.212
		c-0.073-0.062-0.381-0.065-0.922-0.015c-0.062,0.074-0.264,0.188-0.606,0.34c-0.344,0.152-0.547,0.265-0.607,0.338
		c-0.147-0.121-0.479-0.115-0.995,0.019c-0.516,0.135-1.034,0.329-1.556,0.583c-1.775,0.34-3.059,0.555-3.851,0.647
		s-1.235,0.007-1.329-0.257l-0.277-0.229c-0.214,0.259-0.813,0.248-1.793-0.034c-0.982-0.281-1.786-0.682-2.416-1.201
		c-0.666-0.551-1.354-1.602-2.064-3.154c-0.71-1.551-1.13-3.002-1.259-4.355c-0.105-1.83-0.015-4.012,0.272-6.546
		c0.287-2.532,0.681-4.402,1.18-5.61c0.261-0.842,0.65-1.578,1.17-2.208c0.489-0.591,1.032-0.983,1.627-1.177
		c0.693-0.236,1.509-0.357,2.446-0.361c0.937-0.004,1.688,0.104,2.255,0.322c0.814,0.673,1.532,1.406,2.153,2.199
		s0.794,1.355,0.519,1.689c-0.031,0.037-0.058,0.108-0.082,0.212c-0.024,0.105,0.038,0.219,0.186,0.341
		c0.148,0.122,0.281,0.357,0.399,0.703c0.119,0.348,0.181,0.742,0.189,1.184c-0.08,1.305-0.335,2.215-0.763,2.732
		c-0.337,0.407-0.753,0.498-1.253,0.272c-0.135,0.014-0.307-0.005-0.517-0.054c-0.209-0.047-0.359-0.017-0.451,0.095
		c-0.03,0.037-0.148,0.05-0.354,0.034c-0.206-0.015-0.42-0.113-0.642-0.297c-0.111-0.092-0.193-0.237-0.246-0.438
		c-0.054-0.199-0.083-0.332-0.09-0.4c0.184-0.223,0.055-0.951-0.387-2.188s-0.811-1.977-1.106-2.223
		c-0.223-0.184-0.375-0.262-0.458-0.237c-0.082,0.025-0.246,0.187-0.491,0.481c-1.089,3.957-1.592,6.563-1.506,7.814
		c0.13,0.295,0.21,0.5,0.237,0.617c0.028,0.117-0.02,0.25-0.142,0.396c-0.333-0.275,0.115,1.746,1.345,6.061
		c0.013,0.137,0.166,0.402,0.459,0.801c0.294,0.398,0.57,0.704,0.829,0.918c0.235,0.319,0.371,0.493,0.408,0.523
		c0.148,0.123,0.35,0.181,0.604,0.173c0.255-0.007,0.558-0.054,0.907-0.138s0.71-0.161,1.078-0.23
		c3.032-0.731,5.223-1.179,6.571-1.342c1.348-0.162,2.324-0.117,2.928,0.131c1.138,0.131,2.003,0.441,2.595,0.93
		c0.443,0.367,0.694,0.854,0.753,1.463c0.058,0.607-0.04,1.367-0.295,2.277c-0.151,0.562-0.561,1.375-1.226,2.443
		c-0.666,1.07-1.38,2.067-2.145,2.992c-0.428,0.519-0.924,1.043-1.486,1.573C1429.218,391.648,1428.303,391.982,1427.283,392.199z"
		/>
	<path d="M1444.364,368.742c-0.974,0.375-1.739,0.563-2.3,0.566c-0.082-0.049-0.227-0.134-0.434-0.256
		c-0.206-0.123-0.305-0.264-0.293-0.424c0.011-0.161,0.114-0.406,0.31-0.737c0.415-0.702,1.157-1.77,2.225-3.202
		c0.536-0.908,1.033-2.009,1.489-3.301c0.456-1.291,0.576-2.085,0.36-2.38c0.073-0.124,0.089-0.198,0.048-0.223
		c-0.083-0.048-0.387-0.005-0.913,0.13c-0.05,0.084-0.23,0.227-0.547,0.43c-0.315,0.205-0.498,0.348-0.546,0.43
		c-0.165-0.097-0.492-0.039-0.98,0.174c-0.488,0.214-0.97,0.487-1.445,0.819c-1.7,0.614-2.934,1.027-3.702,1.243
		c-0.768,0.215-1.218,0.199-1.353-0.047l-0.31-0.183c-0.171,0.29-0.764,0.372-1.776,0.247c-1.014-0.125-1.871-0.395-2.574-0.809
		c-0.744-0.439-1.588-1.369-2.533-2.792c-0.943-1.421-1.585-2.788-1.924-4.104c-0.392-1.791-0.643-3.961-0.756-6.508
		s-0.018-4.455,0.286-5.727c0.126-0.872,0.396-1.66,0.811-2.363c0.391-0.661,0.865-1.133,1.423-1.418
		c0.648-0.342,1.434-0.588,2.359-0.739c0.925-0.15,1.685-0.161,2.278-0.034c0.909,0.537,1.733,1.148,2.47,1.834
		c0.738,0.688,0.997,1.216,0.777,1.588c-0.025,0.041-0.04,0.116-0.048,0.223c-0.008,0.107,0.072,0.21,0.236,0.307
		c0.166,0.098,0.334,0.31,0.505,0.633c0.171,0.324,0.295,0.705,0.372,1.14c0.125,1.3,0.016,2.239-0.326,2.817
		c-0.269,0.455-0.666,0.61-1.194,0.465c-0.131,0.035-0.304,0.045-0.519,0.029c-0.214-0.014-0.357,0.039-0.431,0.163
		c-0.024,0.042-0.139,0.072-0.345,0.089c-0.206,0.019-0.433-0.047-0.681-0.192c-0.124-0.073-0.228-0.204-0.312-0.394
		c-0.084-0.188-0.134-0.314-0.151-0.381c0.146-0.248-0.095-0.947-0.725-2.101c-0.629-1.151-1.109-1.825-1.44-2.021
		c-0.248-0.146-0.411-0.201-0.489-0.164c-0.077,0.038-0.215,0.223-0.409,0.553c-0.456,4.078-0.546,6.73-0.265,7.954
		c0.175,0.271,0.285,0.461,0.331,0.571c0.047,0.111,0.02,0.25-0.077,0.414c-0.372-0.219,0.387,1.707,2.275,5.775
		c0.034,0.133,0.228,0.372,0.579,0.719c0.353,0.348,0.674,0.607,0.963,0.777c0.282,0.279,0.444,0.43,0.484,0.453
		c0.166,0.098,0.374,0.124,0.624,0.076c0.251-0.047,0.543-0.14,0.875-0.277c0.332-0.139,0.676-0.271,1.028-0.396
		c2.881-1.197,4.975-1.982,6.281-2.354c1.306-0.371,2.277-0.48,2.911-0.33c1.145-0.048,2.048,0.122,2.708,0.512
		c0.496,0.293,0.82,0.736,0.973,1.327c0.152,0.592,0.175,1.357,0.065,2.296c-0.062,0.578-0.338,1.445-0.827,2.605
		c-0.49,1.16-1.04,2.258-1.649,3.291c-0.343,0.578-0.75,1.174-1.223,1.786C1446.188,367.896,1445.336,368.369,1444.364,368.742z"/>
</g>
</svg>
