<?xml version="1.0" encoding="utf-8"?>
<!-- Generator: Adobe Illustrator 16.0.0, SVG Export Plug-In . SVG Version: 6.00 Build 0)  -->
<!DOCTYPE svg PUBLIC "-//W3C//DTD SVG 1.1//EN" "http://www.w3.org/Graphics/SVG/1.1/DTD/svg11.dtd">
<svg version="1.1" id="Capa_1" xmlns="http://www.w3.org/2000/svg" xmlns:xlink="http://www.w3.org/1999/xlink" x="0px" y="0px"
	 width="500px" height="500px" viewBox="0 0 500 500" enable-background="new 0 0 500 500" xml:space="preserve">
<g>
	<path fill="#00A8BB" d="M191.725,253.467c0,38.6-31.289,69.889-69.888,69.889c-38.596,0-69.886-31.289-69.886-69.889
		c0-38.599,31.291-69.888,69.886-69.888C160.436,183.579,191.725,214.868,191.725,253.467z"/>
	<path fill="#01808E" d="M140.892,305.28c-0.506-0.223-1.021-0.448-1.554-0.676h6.691c1.884,0,3.409-1.525,3.409-3.406v-0.853
		c0-1.881-1.524-3.403-3.409-3.403h-3.188c0.261-1.126,0.523-2.278,0.809-3.497c4.673-20.238-0.069-50.868-6.275-61.379h8.653
		c1.884,0,3.409-1.524,3.409-3.406v-0.852c0-1.882-1.524-3.405-3.409-3.405h-6.179h-5.306v-4.255h-5.032
		c4.168-5.33,14.743-19.32,20.195-30.787c-8.54-3.716-17.962-5.784-27.871-5.784c-6.005,0-11.832,0.758-17.393,2.183
		c4.395,11.859,16.924,28.465,21.563,34.389h-4.229v0.512v3.277v0.466h-11.375h-0.112c-1.884,0-3.407,1.523-3.407,3.405v0.852
		c0,1.882,1.521,3.406,3.407,3.406h8.079c-1.738,3.219-3.339,8.494-4.559,14.779c-3.111,13.828-4.354,32.677-1.136,46.601
		c0.281,1.219,0.547,2.371,0.807,3.496h-3.078h-0.112c-1.884,0-3.407,1.522-3.407,3.403v0.853c0,1.88,1.521,3.406,3.407,3.406h6.391
		c-0.444,0.19-0.875,0.378-1.296,0.563c-3.571,1.578-6.413,3.057-8.636,4.44c-6.571,3.924-8.615,7.176-7.959,9.851
		c7.215,2.521,14.973,3.896,23.049,3.896c12.34,0,23.931-3.201,33.993-8.816C153.52,311.87,148.853,308.802,140.892,305.28z"/>
	<g>
		<path fill="#2D2F37" d="M115.114,171.756c-55.956-24.34,0,44.279,0,44.279S172.061,146.051,115.114,171.756z"/>
		<path fill="#5F636D" d="M113.312,173.382c-46.266-20.641,0,37.546,0,37.546S160.397,151.585,113.312,173.382z"/>
		<path fill="#A8AEBE" d="M112.445,174.252c-40.751-18.18,0,33.07,0,33.07S153.919,155.052,112.445,174.252z"/>
		<path fill="#C9D4EC" d="M110.725,176.39c-29.277-13.064,0,23.76,0,23.76S140.526,162.595,110.725,176.39z"/>
		<path fill="#2D2F37" d="M122.134,162.63c0,3.881-3.141,7.024-7.016,7.024c-3.882,0-7.024-3.143-7.024-7.024
			c0-3.876,3.142-7.021,7.024-7.021C118.994,155.609,122.134,158.754,122.134,162.63z"/>
		<path fill="#2D2F37" d="M105.776,160.789c0,2.341-1.89,4.235-4.231,4.235c-2.337,0-4.235-1.894-4.235-4.235
			c0-2.338,1.898-4.236,4.235-4.236C103.886,156.553,105.776,158.45,105.776,160.789z"/>
		<path fill="#2D2F37" d="M132.916,160.789c0,2.341-1.892,4.235-4.229,4.235c-2.341,0-4.237-1.894-4.237-4.235
			c0-2.338,1.896-4.236,4.237-4.236C131.024,156.553,132.916,158.45,132.916,160.789z"/>
		<path fill="#5F636D" d="M119.361,161.526c0,2.936-2.377,5.315-5.312,5.315c-2.935,0-5.316-2.379-5.316-5.315
			c0-2.935,2.381-5.315,5.316-5.315C116.984,156.211,119.361,158.592,119.361,161.526z"/>
		<path fill="#5F636D" d="M104.114,160.417c0,1.771-1.433,3.204-3.204,3.204c-1.767,0-3.204-1.434-3.204-3.204
			c0-1.771,1.437-3.207,3.204-3.207C102.682,157.211,104.114,158.646,104.114,160.417z"/>
		<path fill="#5F636D" d="M131.285,160.524c0,1.771-1.432,3.206-3.202,3.206c-1.771,0-3.207-1.436-3.207-3.206
			c0-1.77,1.437-3.205,3.207-3.205C129.853,157.319,131.285,158.754,131.285,160.524z"/>
		<path fill="#A8AEBE" d="M117.931,161.26c0,2.359-1.91,4.27-4.266,4.27c-2.359,0-4.269-1.911-4.269-4.27
			c0-2.356,1.91-4.269,4.269-4.269C116.021,156.991,117.931,158.903,117.931,161.26z"/>
		<circle fill="#A8AEBE" cx="100.585" cy="160.109" r="2.574"/>
		<path fill="#A8AEBE" d="M130.33,160.063c0,1.422-1.15,2.574-2.571,2.574c-1.425,0-2.576-1.151-2.576-2.574
			c0-1.421,1.15-2.575,2.576-2.575C129.18,157.489,130.33,158.642,130.33,160.063z"/>
		<g>
			<path fill="#2D2F37" d="M131.002,287.123c4.67-20.234-0.068-50.866-6.275-61.379h-18.427
				c-6.208,10.514-10.95,41.145-6.275,61.379c0.28,1.22,0.546,2.372,0.807,3.495h29.361
				C130.455,289.495,130.718,288.343,131.002,287.123z"/>
			<path fill="#5F636D" d="M126.501,282.151c3.93-18.598-0.06-46.746-5.277-56.407h-15.501c-5.223,9.661-9.212,37.81-5.281,56.407
				c0.236,1.119,0.459,2.18,0.682,3.21h24.696C126.042,284.331,126.261,283.27,126.501,282.151z"/>
			<path fill="#A8AEBE" d="M122.711,275.451c3.208-15.351-0.048-38.586-4.31-46.561h-12.66c-4.265,7.975-7.519,31.21-4.309,46.561
				c0.192,0.924,0.376,1.798,0.554,2.651h20.167C122.334,277.249,122.514,276.374,122.711,275.451z"/>
			<path fill="#C9D4EC" d="M117.377,267.882c2.154-12.004-0.03-30.176-2.895-36.412h-8.49c-2.862,6.236-5.048,24.408-2.895,36.412
				c0.13,0.723,0.254,1.407,0.374,2.073h13.535C117.125,269.289,117.248,268.604,117.377,267.882z"/>
		</g>
		<g>
			<rect x="109.129" y="213.827" fill="#2D2F37" width="12.77" height="4.253"/>
			<rect x="109.129" y="214.34" fill="#5F636D" width="11.371" height="3.277"/>
			<rect x="109.466" y="214.497" fill="#A8AEBE" width="9.206" height="2.734"/>
			<rect x="110.401" y="215.298" fill="#C9D4EC" width="5.768" height="1.413"/>
		</g>
		<g>
			<path fill="#2D2F37" d="M128.245,298.957c-0.505-0.222-1.022-0.446-1.554-0.674h-22.495c-0.486,0.205-0.957,0.413-1.418,0.619
				c-24.234,10.703-17.982,17.252-7.396,20.984h40.471C146.283,316.162,152.366,309.629,128.245,298.957z"/>
			<path fill="#5F636D" d="M126.012,298.901c-0.464-0.206-0.936-0.412-1.423-0.62h-20.555c-0.446,0.188-0.876,0.38-1.297,0.563
				c-22.146,9.785-16.434,15.769-6.759,19.177h36.983C142.494,314.621,148.051,308.649,126.012,298.901z"/>
			<path fill="#A8AEBE" d="M119.495,299.836c-0.367-0.162-0.74-0.326-1.127-0.489h-16.313c-0.353,0.148-0.696,0.299-1.032,0.445
				c-17.574,7.765-13.042,12.516-5.364,15.223h29.354C132.577,312.314,136.99,307.575,119.495,299.836z"/>
			<path fill="#C9D4EC" d="M110.9,301.652c-0.234-0.104-0.471-0.206-0.713-0.313H99.854c-0.226,0.097-0.44,0.191-0.651,0.284
				c-11.132,4.919-8.259,7.928-3.398,9.642h18.588C119.185,309.553,121.98,306.554,110.9,301.652z"/>
		</g>
		<g>
			<rect x="84.574" y="319.598" fill="#2D2F37" width="61.881" height="9.363"/>
			<rect x="85.311" y="319.885" fill="#5F636D" width="53.045" height="6.69"/>
			<rect x="85.766" y="320.461" fill="#A8AEBE" width="40.691" height="4.551"/>
			<rect x="87.469" y="321.484" fill="#C9D4EC" width="25.166" height="2.813"/>
		</g>
		<g>
			<path fill="#2D2F37" d="M136.79,294.875c0,1.882-1.524,3.407-3.408,3.407H97.642c-1.882,0-3.404-1.524-3.404-3.407v-0.851
				c0-1.884,1.522-3.406,3.404-3.406h35.741c1.883,0,3.408,1.521,3.408,3.406V294.875z"/>
			<path fill="#5F636D" d="M130.011,294.127c0,1.548-1.256,2.805-2.807,2.805h-29.45c-1.55,0-2.807-1.257-2.807-2.805v-0.703
				c0-1.549,1.257-2.806,2.807-2.806h29.45c1.55,0,2.807,1.257,2.807,2.806V294.127z"/>
			<path fill="#A8AEBE" d="M121.736,293.591c0,1.149-0.931,2.078-2.08,2.078H97.853c-1.148,0-2.078-0.929-2.078-2.078v-0.52
				c0-1.147,0.93-2.075,2.078-2.075h21.804c1.149,0,2.08,0.928,2.08,2.075V293.591z"/>
			<path fill="#C9D4EC" d="M114.512,293.199c0,0.789-0.637,1.427-1.425,1.427H98.111c-0.79,0-1.429-0.638-1.429-1.427v-0.356
				c0-0.79,0.639-1.428,1.429-1.428h14.976c0.789,0,1.425,0.638,1.425,1.428V293.199z"/>
		</g>
		<g>
			<path fill="#2D2F37" d="M136.79,222.339c0,1.881-1.524,3.405-3.408,3.405H97.642c-1.882,0-3.404-1.524-3.404-3.405v-0.853
				c0-1.882,1.522-3.406,3.404-3.406h35.741c1.883,0,3.408,1.524,3.408,3.406V222.339z"/>
			<path fill="#5F636D" d="M130.011,221.59c0,1.55-1.256,2.805-2.807,2.805h-29.45c-1.55,0-2.807-1.255-2.807-2.805v-0.702
				c0-1.552,1.257-2.808,2.807-2.808h29.45c1.55,0,2.807,1.256,2.807,2.808V221.59z"/>
			<path fill="#A8AEBE" d="M121.736,221.054c0,1.147-0.931,2.078-2.08,2.078H97.853c-1.148,0-2.078-0.931-2.078-2.078v-0.521
				c0-1.148,0.93-2.077,2.078-2.077h21.804c1.149,0,2.08,0.929,2.08,2.077V221.054z"/>
			<path fill="#C9D4EC" d="M114.512,220.662c0,0.788-0.637,1.427-1.425,1.427H98.111c-0.79,0-1.429-0.639-1.429-1.427v-0.357
				c0-0.787,0.639-1.427,1.429-1.427h14.976c0.789,0,1.425,0.64,1.425,1.427V220.662z"/>
		</g>
	</g>
</g>
<rect x="202.093" y="218.08" fill="none" width="313.484" height="85.496"/>
<text transform="matrix(1 0 0 1 202.0928 264.1687)" font-family="'Caveat-Regular'" font-size="72">Kids Love </text>
</svg>
