<?xml version="1.0" encoding="utf-8"?>
<!-- Generator: Adobe Illustrator 16.0.0, SVG Export Plug-In . SVG Version: 6.00 Build 0)  -->
<!DOCTYPE svg PUBLIC "-//W3C//DTD SVG 1.1//EN" "http://www.w3.org/Graphics/SVG/1.1/DTD/svg11.dtd">
<svg version="1.1" id="Capa_1" xmlns="http://www.w3.org/2000/svg" xmlns:xlink="http://www.w3.org/1999/xlink" x="0px" y="0px"
	 width="500px" height="500px" viewBox="0 0 500 500" enable-background="new 0 0 500 500" xml:space="preserve">
<g>
	<path fill="#2C2E36" d="M323.502,96.212c0,41.522-33.598,75.14-75.086,75.14s-75.136-33.618-75.136-75.14
		c0-41.472,33.647-75.116,75.136-75.116S323.502,54.741,323.502,96.212z"/>
	<path fill="#5D626C" d="M310.115,92.536c0,35.928-29.07,65.018-64.964,65.018c-35.903,0-65.013-29.09-65.013-65.018
		c0-35.889,29.109-65.001,65.013-65.001C281.044,27.535,310.115,56.647,310.115,92.536z"/>
	<path fill="#A7ADBD" d="M289.136,85.791c0,28.85-23.354,52.213-52.184,52.213c-28.835,0-52.208-23.363-52.208-52.213
		c0-28.818,23.373-52.193,52.208-52.193C265.782,33.598,289.136,56.973,289.136,85.791z"/>
	<path fill="#C9D4EC" d="M256.644,71.792c0,17.827-14.758,32.262-32.957,32.262c-18.218,0-32.986-14.435-32.986-32.262
		c0-17.795,14.768-32.24,32.986-32.24C241.886,39.552,256.644,53.997,256.644,71.792z"/>
	<g>
		<path fill="#2C2E36" d="M324.986,312.316c0,4.469-5.614,8.091-12.59,8.091H186.545c-6.96,0-12.585-3.622-12.585-8.091
			l8.385-97.955c0-4.472,5.653-8.096,12.609-8.096h109.032c6.976,0,12.604,3.625,12.604,8.096L324.986,312.316z"/>
		<path fill="#5D626C" d="M303.865,307.823c0,4.063-4.582,7.356-10.25,7.356H191.136c-5.668,0-10.25-3.294-10.25-7.356l6.824-88.971
			c0-4.06,4.611-7.352,10.269-7.352h88.783c5.683,0,10.264,3.292,10.264,7.352L303.865,307.823z"/>
		<path fill="#A7ADBD" d="M275.792,307.823c0,4.063-3.539,7.356-7.915,7.356h-79.081c-4.371,0-7.91-3.294-7.91-7.356l5.267-88.971
			c0-4.06,3.549-7.352,7.92-7.352h68.518c4.386,0,7.93,3.292,7.93,7.352L275.792,307.823z"/>
		<path fill="#C9D4EC" d="M233.427,307.823c0,4.063-1.831,7.356-4.092,7.356h-40.872c-2.261,0-4.082-3.294-4.082-7.356l2.716-88.971
			c0-4.06,1.836-7.352,4.097-7.352h35.409c2.271,0,4.102,3.292,4.102,7.352L233.427,307.823z"/>
	</g>
	<g>
		<path fill="#2C2E36" d="M311.863,360.359c-2.477-0.788-5.003-1.591-7.616-2.398H194.019c-2.384,0.733-4.704,1.468-6.96,2.192
			c-118.738,37.994-88.112,61.239-36.236,74.479h198.324C400.253,421.417,430.063,398.235,311.863,360.359z"/>
		<path fill="#5D626C" d="M300.907,360.153c-2.271-0.725-4.576-1.454-6.965-2.192H193.221c-2.183,0.67-4.292,1.341-6.354,1.997
			c-108.518,34.724-80.529,55.967-33.118,68.067h181.226C381.682,415.949,408.922,394.76,300.907,360.153z"/>
		<path fill="#A7ADBD" d="M268.984,363.472c-1.791-0.567-3.632-1.145-5.526-1.732H183.51c-1.723,0.528-3.407,1.063-5.042,1.586
			c-86.12,27.558-63.907,44.416-26.285,54.02h143.839C333.086,407.761,354.711,390.947,268.984,363.472z"/>
		<path fill="#C9D4EC" d="M226.859,369.924c-1.135-0.372-2.291-0.734-3.495-1.106h-50.623c-1.096,0.338-2.158,0.681-3.201,1.008
			c-54.538,17.45-40.47,28.131-16.642,34.21h91.092C267.466,397.966,281.157,387.314,226.859,369.924z"/>
	</g>
	<g>
		<rect x="97.861" y="433.229" fill="#2C2E36" width="303.225" height="45.884"/>
		<rect x="101.468" y="434.633" fill="#5D626C" width="259.944" height="32.786"/>
		<rect x="103.705" y="437.462" fill="#A7ADBD" width="199.396" height="22.291"/>
		<rect x="112.051" y="442.465" fill="#C9D4EC" width="123.315" height="13.789"/>
	</g>
	<g>
		<path fill="#2C2E36" d="M353.733,341.27c0,9.217-7.47,16.691-16.701,16.691H161.905c-9.232,0-16.687-7.475-16.687-16.691v-4.171
			c0-9.222,7.455-16.691,16.687-16.691h175.127c9.231,0,16.701,7.47,16.701,16.691V341.27z"/>
		<path fill="#5D626C" d="M320.512,337.598c0,7.598-6.153,13.75-13.755,13.75H162.448c-7.592,0-13.74-6.152-13.74-13.75v-3.436
			c0-7.606,6.147-13.755,13.74-13.755h144.309c7.602,0,13.755,6.148,13.755,13.755V337.598z"/>
		<path fill="#A7ADBD" d="M279.968,334.979c0,5.624-4.553,10.176-10.191,10.176H162.927c-5.619,0-10.176-4.552-10.176-10.176v-2.546
			c0-5.629,4.557-10.181,10.176-10.181h106.849c5.639,0,10.191,4.552,10.191,10.181V334.979z"/>
		<path fill="#C9D4EC" d="M244.578,333.056c0,3.862-3.132,6.99-7,6.99h-73.393c-3.867,0-6.99-3.128-6.99-6.99v-1.747
			c0-3.867,3.123-6.995,6.99-6.995h73.393c3.867,0,7,3.128,7,6.995V333.056z"/>
	</g>
	<g>
		<path fill="#2C2E36" d="M353.733,189.576c0,9.217-7.47,16.689-16.701,16.689H161.905c-9.232,0-16.687-7.472-16.687-16.689v-4.173
			c0-9.224,7.455-16.687,16.687-16.687h175.127c9.231,0,16.701,7.462,16.701,16.687V189.576z"/>
		<path fill="#5D626C" d="M320.512,185.905c0,7.592-6.153,13.752-13.755,13.752H162.448c-7.592,0-13.74-6.16-13.74-13.752v-3.438
			c0-7.602,6.147-13.75,13.74-13.75h144.309c7.602,0,13.755,6.148,13.755,13.75V185.905z"/>
		<path fill="#A7ADBD" d="M279.968,183.284c0,5.622-4.553,10.179-10.191,10.179H162.927c-5.619,0-10.176-4.557-10.176-10.179v-2.545
			c0-5.626,4.557-10.184,10.176-10.184h106.849c5.639,0,10.191,4.557,10.191,10.184V183.284z"/>
		<path fill="#C9D4EC" d="M244.578,181.363c0,3.862-3.132,6.99-7,6.99h-73.393c-3.867,0-6.99-3.128-6.99-6.99v-1.748
			c0-3.865,3.123-6.997,6.99-6.997h73.393c3.867,0,7,3.132,7,6.997V181.363z"/>
	</g>
</g>
</svg>
