<?xml version="1.0" encoding="utf-8"?>
<!-- Generator: Adobe Illustrator 16.0.0, SVG Export Plug-In . SVG Version: 6.00 Build 0)  -->
<!DOCTYPE svg PUBLIC "-//W3C//DTD SVG 1.1//EN" "http://www.w3.org/Graphics/SVG/1.1/DTD/svg11.dtd">
<svg version="1.1" id="Capa_1" xmlns="http://www.w3.org/2000/svg" xmlns:xlink="http://www.w3.org/1999/xlink" x="0px" y="0px"
	 width="500px" height="500px" viewBox="1040 0 500 500" enable-background="new 1040 0 500 500" xml:space="preserve">
<g>
	<g>
		<path fill="#2D2F37" d="M1274.331,92.876c-102.303-44.501,0,80.953,0,80.953S1378.446,45.88,1274.331,92.876z"/>
		<path fill="#5F636D" d="M1271.036,95.848c-84.587-37.737,0,68.646,0,68.646S1357.121,55.998,1271.036,95.848z"/>
		<path fill="#A8AEBE" d="M1269.452,97.438c-74.505-33.238,0,60.462,0,60.462S1345.277,62.338,1269.452,97.438z"/>
		<path fill="#C9D4EC" d="M1266.307,101.348c-53.527-23.883,0,43.441,0,43.441S1320.791,76.127,1266.307,101.348z"/>
		<path fill="#2D2F37" d="M1287.166,76.191c0,7.096-5.741,12.842-12.827,12.842c-7.098,0-12.842-5.746-12.842-12.842
			c0-7.086,5.745-12.836,12.842-12.836C1281.425,63.355,1287.166,69.105,1287.166,76.191z"/>
		<path fill="#2D2F37" d="M1257.26,72.825c0,4.279-3.456,7.742-7.736,7.742c-4.272,0-7.743-3.463-7.743-7.742
			c0-4.275,3.471-7.744,7.743-7.744C1253.804,65.081,1257.26,68.549,1257.26,72.825z"/>
		<path fill="#2D2F37" d="M1306.878,72.825c0,4.279-3.458,7.742-7.731,7.742c-4.279,0-7.747-3.463-7.747-7.742
			c0-4.275,3.468-7.744,7.747-7.744C1303.42,65.081,1306.878,68.549,1306.878,72.825z"/>
		<path fill="#5F636D" d="M1282.097,74.173c0,5.368-4.347,9.717-9.712,9.717c-5.366,0-9.72-4.349-9.72-9.717
			c0-5.366,4.354-9.718,9.72-9.718C1277.75,64.456,1282.097,68.808,1282.097,74.173z"/>
		<path fill="#5F636D" d="M1254.221,72.145c0,3.238-2.619,5.859-5.858,5.859c-3.231,0-5.858-2.621-5.858-5.859
			c0-3.237,2.626-5.862,5.858-5.862C1251.602,66.283,1254.221,68.908,1254.221,72.145z"/>
		<path fill="#5F636D" d="M1303.895,72.341c0,3.237-2.618,5.861-5.854,5.861c-3.236,0-5.863-2.625-5.863-5.861
			c0-3.235,2.627-5.86,5.863-5.86C1301.277,66.481,1303.895,69.105,1303.895,72.341z"/>
		<path fill="#A8AEBE" d="M1279.481,73.685c0,4.313-3.492,7.807-7.799,7.807c-4.313,0-7.805-3.494-7.805-7.807
			c0-4.307,3.492-7.803,7.805-7.803C1275.989,65.882,1279.481,69.377,1279.481,73.685z"/>
		<circle fill="#A8AEBE" cx="1247.769" cy="71.583" r="4.706"/>
		<path fill="#A8AEBE" d="M1302.149,71.498c0,2.6-2.102,4.707-4.701,4.707c-2.604,0-4.709-2.106-4.709-4.707
			c0-2.599,2.104-4.707,4.709-4.707C1300.048,66.791,1302.149,68.899,1302.149,71.498z"/>
		<g>
			<path fill="#2D2F37" d="M1303.38,303.799c8.539-36.996-0.125-92.999-11.473-112.218h-33.688
				c-11.352,19.22-20.02,75.222-11.473,112.218c0.512,2.229,0.998,4.336,1.476,6.389h53.68
				C1302.379,308.135,1302.86,306.027,1303.38,303.799z"/>
			<path fill="#5F636D" d="M1295.15,294.709c7.186-34.002-0.108-85.465-9.648-103.128h-28.34
				c-9.549,17.663-16.843,69.126-9.654,103.128c0.431,2.045,0.84,3.984,1.246,5.869h45.151
				C1294.311,298.693,1294.712,296.754,1295.15,294.709z"/>
			<path fill="#A8AEBE" d="M1288.222,282.459c5.865-28.066-0.088-70.546-7.879-85.125h-23.146
				c-7.798,14.579-13.747,57.059-7.878,85.125c0.352,1.688,0.688,3.287,1.013,4.846h36.871
				C1287.531,285.746,1287.86,284.146,1288.222,282.459z"/>
			<path fill="#C9D4EC" d="M1278.47,268.619c3.938-21.946-0.055-55.169-5.293-66.57h-15.522c-5.233,11.401-9.229,44.625-5.292,66.57
				c0.237,1.322,0.465,2.574,0.684,3.791h24.746C1278.009,271.193,1278.232,269.941,1278.47,268.619z"/>
		</g>
		<g>
			<rect x="1263.389" y="169.793" fill="#2D2F37" width="23.347" height="7.776"/>
			<rect x="1263.389" y="170.73" fill="#5F636D" width="20.79" height="5.992"/>
			<rect x="1264.006" y="171.017" fill="#A8AEBE" width="16.831" height="4.999"/>
			<rect x="1265.716" y="172.482" fill="#C9D4EC" width="10.544" height="2.584"/>
		</g>
		<g>
			<path fill="#2D2F37" d="M1298.339,325.434c-0.924-0.406-1.869-0.817-2.842-1.233h-41.126c-0.889,0.375-1.75,0.756-2.594,1.133
				c-44.305,19.567-32.876,31.541-13.521,38.364h73.992C1331.317,356.889,1342.439,344.945,1298.339,325.434z"/>
			<path fill="#5F636D" d="M1294.256,325.332c-0.848-0.377-1.71-0.754-2.602-1.133h-37.58c-0.814,0.344-1.601,0.693-2.371,1.029
				c-40.488,17.891-30.045,28.83-12.356,35.061h67.615C1324.389,354.072,1334.55,343.154,1294.256,325.332z"/>
			<path fill="#A8AEBE" d="M1282.341,327.041c-0.672-0.297-1.354-0.596-2.061-0.895h-29.825c-0.644,0.272-1.271,0.547-1.886,0.815
				c-32.131,14.195-23.843,22.881-9.807,27.83h53.666C1306.258,349.854,1314.326,341.189,1282.341,327.041z"/>
			<path fill="#C9D4EC" d="M1266.628,330.361c-0.428-0.188-0.861-0.377-1.304-0.57h-18.892c-0.413,0.176-0.804,0.348-1.19,0.518
				c-20.353,8.994-15.1,14.494-6.213,17.627h33.986C1281.774,344.807,1286.885,339.324,1266.628,330.361z"/>
		</g>
		<g>
			<rect x="1218.496" y="363.172" fill="#2D2F37" width="113.136" height="17.119"/>
			<rect x="1219.844" y="363.697" fill="#5F636D" width="96.98" height="12.232"/>
			<rect x="1220.676" y="364.748" fill="#A8AEBE" width="74.394" height="8.32"/>
			<rect x="1223.788" y="366.619" fill="#C9D4EC" width="46.011" height="5.143"/>
		</g>
		<g>
			<path fill="#2D2F37" d="M1313.961,317.971c0,3.441-2.787,6.229-6.231,6.229h-65.343c-3.441,0-6.224-2.787-6.224-6.229v-1.555
				c0-3.445,2.782-6.229,6.224-6.229h65.343c3.444,0,6.231,2.783,6.231,6.229V317.971z"/>
			<path fill="#5F636D" d="M1301.567,316.602c0,2.83-2.297,5.129-5.131,5.129h-53.842c-2.834,0-5.132-2.299-5.132-5.129v-1.285
				c0-2.832,2.298-5.129,5.132-5.129h53.842c2.834,0,5.131,2.297,5.131,5.129V316.602z"/>
			<path fill="#A8AEBE" d="M1286.439,315.623c0,2.1-1.702,3.799-3.802,3.799h-39.864c-2.1,0-3.799-1.699-3.799-3.799v-0.949
				c0-2.098,1.699-3.795,3.799-3.795h39.864c2.1,0,3.802,1.697,3.802,3.795V315.623z"/>
			<path fill="#C9D4EC" d="M1273.231,314.906c0,1.443-1.164,2.609-2.606,2.609h-27.379c-1.443,0-2.612-1.166-2.612-2.609v-0.65
				c0-1.445,1.169-2.611,2.612-2.611h27.379c1.442,0,2.606,1.166,2.606,2.611V314.906z"/>
		</g>
		<g>
			<path fill="#2D2F37" d="M1313.961,185.355c0,3.439-2.787,6.226-6.231,6.226h-65.343c-3.441,0-6.224-2.787-6.224-6.226v-1.558
				c0-3.441,2.782-6.228,6.224-6.228h65.343c3.444,0,6.231,2.787,6.231,6.228V185.355z"/>
			<path fill="#5F636D" d="M1301.567,183.985c0,2.833-2.297,5.128-5.131,5.128h-53.842c-2.834,0-5.132-2.295-5.132-5.128v-1.284
				c0-2.836,2.298-5.132,5.132-5.132h53.842c2.834,0,5.131,2.295,5.131,5.132V183.985z"/>
			<path fill="#A8AEBE" d="M1286.439,183.008c0,2.097-1.702,3.797-3.802,3.797h-39.864c-2.1,0-3.799-1.7-3.799-3.797v-0.953
				c0-2.099,1.699-3.797,3.799-3.797h39.864c2.1,0,3.802,1.698,3.802,3.797V183.008z"/>
			<path fill="#C9D4EC" d="M1273.231,182.289c0,1.441-1.164,2.608-2.606,2.608h-27.379c-1.443,0-2.612-1.167-2.612-2.608v-0.654
				c0-1.439,1.169-2.608,2.612-2.608h27.379c1.442,0,2.606,1.169,2.606,2.608V182.289z"/>
		</g>
	</g>
</g>
</svg>
