<?xml version="1.0" encoding="utf-8"?>
<!-- Generator: Adobe Illustrator 16.0.0, SVG Export Plug-In . SVG Version: 6.00 Build 0)  -->
<!DOCTYPE svg PUBLIC "-//W3C//DTD SVG 1.1//EN" "http://www.w3.org/Graphics/SVG/1.1/DTD/svg11.dtd">
<svg version="1.1" id="Capa_1" xmlns="http://www.w3.org/2000/svg" xmlns:xlink="http://www.w3.org/1999/xlink" x="0px" y="0px"
	 width="500px" height="500px" viewBox="0 0 500 500" enable-background="new 0 0 500 500" xml:space="preserve">
<g>
	<path fill="#00A8BB" d="M377.773,270.441c0,70.571-57.205,127.776-127.774,127.776c-70.563,0-127.771-57.205-127.771-127.776
		c0-70.568,57.209-127.773,127.771-127.773C320.568,142.668,377.773,199.873,377.773,270.441z"/>
	<path fill="#01808E" d="M284.836,365.171c-0.925-0.406-1.867-0.818-2.842-1.234h12.233c3.444,0,6.231-2.79,6.231-6.229v-1.559
		c0-3.438-2.787-6.223-6.231-6.223h-5.829c0.477-2.058,0.957-4.164,1.479-6.394c8.544-37-0.127-93-11.473-112.217h15.821
		c3.444,0,6.231-2.787,6.231-6.229v-1.556c0-3.441-2.787-6.227-6.231-6.227H282.93h-9.701v-7.779h-9.199
		c7.621-9.745,26.955-35.322,36.923-56.287c-15.613-6.793-32.84-10.574-50.955-10.574c-10.979,0-21.632,1.386-31.8,3.99
		c8.035,21.681,30.942,52.042,39.423,62.871h-7.732v0.937v5.992v0.851h-20.797h-0.205c-3.444,0-6.229,2.785-6.229,6.227v1.556
		c0,3.441,2.782,6.229,6.229,6.229h14.771c-3.179,5.884-6.105,15.529-8.335,27.021c-5.688,25.282-7.959,59.741-2.077,85.198
		c0.515,2.229,1,4.336,1.476,6.393h-5.628h-0.205c-3.444,0-6.229,2.783-6.229,6.222v1.559c0,3.438,2.782,6.229,6.229,6.229h11.685
		c-0.812,0.348-1.601,0.689-2.37,1.029c-6.529,2.885-11.725,5.588-15.789,8.119c-12.015,7.174-15.75,13.118-14.552,18.01
		c13.191,4.606,27.375,7.123,42.14,7.123c22.562,0,43.753-5.854,62.149-16.119C307.923,377.219,299.391,371.611,284.836,365.171z"/>
	<g>
		<path fill="#2D2F37" d="M237.707,121.052c-102.303-44.501,0,80.953,0,80.953S341.822,74.056,237.707,121.052z"/>
		<path fill="#5F636D" d="M234.412,124.025c-84.587-37.737,0,68.646,0,68.646S320.497,84.175,234.412,124.025z"/>
		<path fill="#A8AEBE" d="M232.828,125.615c-74.505-33.238,0,60.462,0,60.462S308.653,90.514,232.828,125.615z"/>
		<path fill="#C9D4EC" d="M229.683,129.525c-53.526-23.884,0,43.44,0,43.44S284.167,104.303,229.683,129.525z"/>
		<path fill="#2D2F37" d="M250.542,104.368c0,7.096-5.741,12.842-12.827,12.842c-7.098,0-12.842-5.746-12.842-12.842
			c0-7.086,5.745-12.836,12.842-12.836C244.801,91.532,250.542,97.282,250.542,104.368z"/>
		<path fill="#2D2F37" d="M220.636,101.002c0,4.279-3.456,7.742-7.735,7.742c-4.272,0-7.743-3.463-7.743-7.742
			c0-4.275,3.471-7.744,7.743-7.744C217.18,93.258,220.636,96.725,220.636,101.002z"/>
		<path fill="#2D2F37" d="M270.254,101.002c0,4.279-3.458,7.742-7.73,7.742c-4.279,0-7.747-3.463-7.747-7.742
			c0-4.275,3.468-7.744,7.747-7.744C266.796,93.258,270.254,96.725,270.254,101.002z"/>
		<path fill="#5F636D" d="M245.473,102.349c0,5.368-4.347,9.718-9.712,9.718c-5.366,0-9.72-4.35-9.72-9.718
			c0-5.365,4.354-9.718,9.72-9.718C241.126,92.633,245.473,96.985,245.473,102.349z"/>
		<path fill="#5F636D" d="M217.597,100.322c0,3.237-2.619,5.858-5.857,5.858c-3.231,0-5.858-2.621-5.858-5.858
			s2.626-5.862,5.858-5.862C214.979,94.46,217.597,97.085,217.597,100.322z"/>
		<path fill="#5F636D" d="M267.271,100.517c0,3.237-2.618,5.861-5.854,5.861s-5.863-2.625-5.863-5.861
			c0-3.234,2.627-5.859,5.863-5.859S267.271,97.282,267.271,100.517z"/>
		<path fill="#A8AEBE" d="M242.857,101.862c0,4.313-3.492,7.807-7.8,7.807c-4.313,0-7.805-3.494-7.805-7.807
			c0-4.308,3.492-7.804,7.805-7.804C239.365,94.058,242.857,97.553,242.857,101.862z"/>
		<circle fill="#A8AEBE" cx="211.145" cy="99.76" r="4.706"/>
		<path fill="#A8AEBE" d="M265.525,99.675c0,2.601-2.103,4.707-4.701,4.707c-2.604,0-4.709-2.105-4.709-4.707
			c0-2.599,2.104-4.707,4.709-4.707C263.424,94.968,265.525,97.076,265.525,99.675z"/>
		<g>
			<path fill="#2D2F37" d="M266.756,331.975c8.539-36.995-0.125-92.998-11.473-112.218h-33.688
				c-11.352,19.221-20.02,75.223-11.473,112.218c0.512,2.229,0.998,4.337,1.476,6.39h53.681
				C265.755,336.312,266.236,334.204,266.756,331.975z"/>
			<path fill="#5F636D" d="M258.526,322.885c7.186-34.002-0.108-85.465-9.648-103.128h-28.34
				c-9.549,17.663-16.843,69.126-9.654,103.128c0.432,2.045,0.84,3.984,1.246,5.869h45.151
				C257.688,326.87,258.088,324.93,258.526,322.885z"/>
			<path fill="#A8AEBE" d="M251.598,310.635c5.865-28.065-0.088-70.546-7.879-85.125h-23.146
				c-7.798,14.579-13.747,57.06-7.878,85.125c0.352,1.688,0.688,3.287,1.013,4.847h36.871
				C250.907,313.923,251.236,312.323,251.598,310.635z"/>
			<path fill="#C9D4EC" d="M241.846,296.796c3.938-21.946-0.055-55.169-5.293-66.57h-15.521c-5.233,11.401-9.229,44.625-5.292,66.57
				c0.237,1.322,0.465,2.574,0.684,3.791h24.746C241.385,299.37,241.608,298.118,241.846,296.796z"/>
		</g>
		<g>
			<rect x="226.765" y="197.969" fill="#2D2F37" width="23.348" height="7.776"/>
			<rect x="226.765" y="198.907" fill="#5F636D" width="20.79" height="5.992"/>
			<rect x="227.382" y="199.194" fill="#A8AEBE" width="16.831" height="4.999"/>
			<rect x="229.092" y="200.659" fill="#C9D4EC" width="10.544" height="2.584"/>
		</g>
		<g>
			<path fill="#2D2F37" d="M261.715,353.611c-0.924-0.406-1.869-0.817-2.842-1.233h-41.126c-0.89,0.375-1.75,0.756-2.594,1.133
				c-44.306,19.567-32.876,31.541-13.521,38.364h73.992C294.693,385.066,305.814,373.122,261.715,353.611z"/>
			<path fill="#5F636D" d="M257.632,353.509c-0.848-0.377-1.71-0.754-2.602-1.133h-37.58c-0.814,0.344-1.602,0.693-2.371,1.029
				c-40.488,17.891-30.045,28.83-12.356,35.061h67.615C287.765,382.249,297.926,371.331,257.632,353.509z"/>
			<path fill="#A8AEBE" d="M245.717,355.218c-0.672-0.297-1.354-0.596-2.061-0.895h-29.825c-0.645,0.271-1.271,0.547-1.886,0.814
				c-32.131,14.195-23.844,22.881-9.808,27.83h53.666C269.634,378.031,277.702,369.366,245.717,355.218z"/>
			<path fill="#C9D4EC" d="M230.004,358.538c-0.428-0.188-0.861-0.377-1.304-0.57h-18.892c-0.413,0.176-0.805,0.349-1.19,0.519
				c-20.353,8.994-15.1,14.494-6.213,17.627h33.985C245.15,372.984,250.261,367.501,230.004,358.538z"/>
		</g>
		<g>
			<rect x="181.872" y="391.348" fill="#2D2F37" width="113.136" height="17.119"/>
			<rect x="183.22" y="391.874" fill="#5F636D" width="96.98" height="12.232"/>
			<rect x="184.052" y="392.925" fill="#A8AEBE" width="74.395" height="8.32"/>
			<rect x="187.164" y="394.796" fill="#C9D4EC" width="46.011" height="5.144"/>
		</g>
		<g>
			<path fill="#2D2F37" d="M277.337,346.148c0,3.44-2.787,6.229-6.23,6.229h-65.344c-3.44,0-6.224-2.787-6.224-6.229v-1.556
				c0-3.444,2.782-6.229,6.224-6.229h65.344c3.443,0,6.23,2.783,6.23,6.229V346.148z"/>
			<path fill="#5F636D" d="M264.943,344.779c0,2.83-2.297,5.129-5.131,5.129H205.97c-2.834,0-5.132-2.299-5.132-5.129v-1.285
				c0-2.832,2.298-5.129,5.132-5.129h53.843c2.834,0,5.131,2.297,5.131,5.129V344.779z"/>
			<path fill="#A8AEBE" d="M249.814,343.8c0,2.101-1.701,3.799-3.802,3.799h-39.864c-2.1,0-3.799-1.698-3.799-3.799v-0.949
				c0-2.098,1.699-3.795,3.799-3.795h39.864c2.101,0,3.802,1.697,3.802,3.795V343.8z"/>
			<path fill="#C9D4EC" d="M236.607,343.083c0,1.443-1.164,2.609-2.606,2.609h-27.379c-1.443,0-2.612-1.166-2.612-2.609v-0.65
				c0-1.444,1.169-2.61,2.612-2.61h27.379c1.442,0,2.606,1.166,2.606,2.61V343.083z"/>
		</g>
		<g>
			<path fill="#2D2F37" d="M277.337,213.532c0,3.438-2.787,6.226-6.23,6.226h-65.344c-3.44,0-6.224-2.787-6.224-6.226v-1.559
				c0-3.44,2.782-6.228,6.224-6.228h65.344c3.443,0,6.23,2.787,6.23,6.228V213.532z"/>
			<path fill="#5F636D" d="M264.943,212.162c0,2.833-2.297,5.128-5.131,5.128H205.97c-2.834,0-5.132-2.295-5.132-5.128v-1.284
				c0-2.836,2.298-5.132,5.132-5.132h53.843c2.834,0,5.131,2.295,5.131,5.132V212.162z"/>
			<path fill="#A8AEBE" d="M249.814,211.184c0,2.098-1.701,3.798-3.802,3.798h-39.864c-2.1,0-3.799-1.7-3.799-3.798v-0.952
				c0-2.1,1.699-3.798,3.799-3.798h39.864c2.101,0,3.802,1.698,3.802,3.798V211.184z"/>
			<path fill="#C9D4EC" d="M236.607,210.466c0,1.441-1.164,2.608-2.606,2.608h-27.379c-1.443,0-2.612-1.167-2.612-2.608v-0.653
				c0-1.439,1.169-2.608,2.612-2.608h27.379c1.442,0,2.606,1.169,2.606,2.608V210.466z"/>
		</g>
	</g>
</g>
</svg>
